<svg width="561" height="330" viewBox="0 0 561 330" fill="none" xmlns="http://www.w3.org/2000/svg">
<g clip-path="url(#clip0)">
<rect width="330" height="561" transform="translate(0 330) rotate(-90)" fill="white"/>
<path d="M112.186 183.391C111.502 183 110.906 182.59 110.398 182.16C109.91 181.73 109.666 181.271 109.666 180.783C109.666 179.846 110.066 179.377 110.867 179.377C111.395 179.377 111.98 179.67 112.625 180.256C113.27 180.842 113.992 181.359 114.793 181.809C115.594 182.238 116.463 182.609 117.4 182.922C119.334 183.566 121.121 183.889 122.762 183.889C124.402 183.889 125.662 183.781 126.541 183.566C127.439 183.352 128.191 183.059 128.797 182.688C130.086 181.887 130.73 180.861 130.73 179.611C130.73 178.459 130.174 177.297 129.061 176.125C128.123 175.129 126.795 173.938 125.076 172.551L120.066 168.625C115.047 164.758 112.088 161.223 111.189 158.02C110.877 156.906 110.721 155.666 110.721 154.299C110.721 152.932 111.023 151.584 111.629 150.256C112.254 148.928 113.172 147.766 114.383 146.77C116.98 144.602 120.516 143.518 124.988 143.518C127.273 143.518 129.324 143.859 131.141 144.543C132.957 145.207 134.197 145.803 134.861 146.33C135.525 146.857 135.857 147.336 135.857 147.766C135.857 148.664 135.486 149.113 134.744 149.113C134.314 149.113 133.855 148.898 133.367 148.469C132.879 148.039 132.332 147.668 131.727 147.355C131.141 147.023 130.467 146.73 129.705 146.477C128.064 145.93 126.453 145.656 124.871 145.656C121.961 145.656 120.506 146.613 120.506 148.527C120.506 149.328 120.77 150.07 121.297 150.754C122.234 151.945 124.061 153.654 126.775 155.881C129.51 158.088 131.697 160.021 133.338 161.682C134.998 163.342 136.258 164.836 137.117 166.164C138.484 168.254 139.168 170.432 139.168 172.697C139.168 174.943 138.768 176.857 137.967 178.439C137.186 180.002 136.082 181.35 134.656 182.482C131.648 184.865 127.918 186.057 123.465 186.057C119.012 186.057 115.252 185.168 112.186 183.391ZM166.443 173.342L169.051 173.459C172.84 173.459 175.965 172.209 178.426 169.709C180.926 167.189 182.234 163.928 182.352 159.924C182.566 153.752 179.598 149.582 173.445 147.414C171.141 146.594 168.143 146.184 164.451 146.184H161.99V185.5H147.049V144.045H158.27C164.324 144.045 167.977 144.133 169.227 144.309C170.477 144.484 171.775 144.709 173.123 144.982C174.49 145.256 175.955 145.852 177.518 146.77C179.1 147.688 180.438 148.781 181.531 150.051C183.738 152.629 184.803 155.656 184.725 159.133C184.607 163.566 183.309 167.258 180.828 170.207C178.309 173.176 174.832 175.012 170.398 175.715C169.109 175.891 168.094 175.979 167.352 175.979C165.594 175.979 164.715 175.5 164.715 174.543C164.715 174.191 164.871 173.908 165.184 173.693C165.496 173.459 165.916 173.342 166.443 173.342ZM217.215 182.98C218.211 182.98 218.709 183.371 218.709 184.152C218.709 184.504 218.494 184.816 218.064 185.09C217.635 185.363 216.893 185.5 215.838 185.5H191.023V144.045C198.719 144.045 206.414 144.045 214.109 144.045L216.512 143.957C217.977 143.957 218.709 144.387 218.709 145.246C218.709 145.578 218.582 145.891 218.328 146.184C218.094 146.457 217.82 146.594 217.508 146.594C217 146.594 216.463 146.535 215.896 146.418C215.057 146.242 213.904 146.154 212.439 146.154H205.965V155.09H211.297C211.297 155.09 212.498 155.041 214.9 154.943C215.33 154.943 215.691 155.051 215.984 155.266C216.297 155.461 216.453 155.744 216.453 156.115C216.453 156.936 215.906 157.346 214.812 157.346L213.553 157.316C212.908 157.258 212.371 157.229 211.941 157.229H205.965V183.361H212.439C213.885 183.361 214.91 183.303 215.516 183.186C216.238 183.049 216.805 182.98 217.215 182.98ZM233.885 180.285C230.311 180.285 227.869 180.256 226.561 180.197L225.711 182.219C225.457 182.785 225.223 183.381 225.008 184.006C224.559 185.217 223.934 185.822 223.133 185.822C222.762 185.822 222.459 185.705 222.225 185.471C221.99 185.236 221.873 184.992 221.873 184.738C221.873 184.309 222.059 183.83 222.43 183.303C223.016 182.482 223.592 181.408 224.158 180.08C222.479 179.924 221.639 179.436 221.639 178.615C221.639 177.795 222.117 177.385 223.074 177.385C223.66 177.385 224.344 177.482 225.125 177.678L239.744 142.17L259.783 185.5H244.52L242.088 180.285H233.885ZM227.498 177.912C229.373 178.068 231.053 178.146 232.537 178.146H241.121L233.797 162.355L227.498 177.912ZM266.287 144.045H281.229V156.174L291.658 148.293C293.123 147.18 294.188 146.271 294.852 145.568C295.516 144.865 295.926 144.445 296.082 144.309C296.258 144.152 296.414 144.035 296.551 143.957C296.785 143.801 297.078 143.723 297.43 143.723C297.801 143.723 298.094 143.83 298.309 144.045C298.523 144.24 298.631 144.465 298.631 144.719C298.631 144.953 298.602 145.158 298.543 145.334C298.484 145.49 298.367 145.676 298.191 145.891C297.801 146.359 297.059 147.014 295.965 147.854L289.402 152.834L300.389 179.699C300.604 180.207 300.809 180.656 301.004 181.047L301.473 182.102L302 183.098C302.137 183.371 302.254 183.635 302.352 183.889C302.449 184.143 302.488 184.387 302.469 184.621C302.449 184.855 302.381 185.07 302.264 185.266C301.99 185.695 301.658 185.91 301.268 185.91C300.721 185.91 300.311 185.754 300.037 185.441C299.686 185.012 299.422 184.533 299.246 184.006L298.719 182.365C298.543 181.818 298.309 181.164 298.016 180.402L287.381 154.357L281.229 159.016V185.5H266.287V144.045ZM334.578 182.98C335.574 182.98 336.072 183.371 336.072 184.152C336.072 184.504 335.857 184.816 335.428 185.09C334.998 185.363 334.256 185.5 333.201 185.5H308.387V144.045C316.082 144.045 323.777 144.045 331.473 144.045L333.875 143.957C335.34 143.957 336.072 144.387 336.072 145.246C336.072 145.578 335.945 145.891 335.691 146.184C335.457 146.457 335.184 146.594 334.871 146.594C334.363 146.594 333.826 146.535 333.26 146.418C332.42 146.242 331.268 146.154 329.803 146.154H323.328V155.09H328.66C328.66 155.09 329.861 155.041 332.264 154.943C332.693 154.943 333.055 155.051 333.348 155.266C333.66 155.461 333.816 155.744 333.816 156.115C333.816 156.936 333.27 157.346 332.176 157.346L330.916 157.316C330.271 157.258 329.734 157.229 329.305 157.229H323.328V183.361H329.803C331.248 183.361 332.273 183.303 332.879 183.186C333.602 183.049 334.168 182.98 334.578 182.98ZM351.248 180.285C347.674 180.285 345.232 180.256 343.924 180.197L343.074 182.219C342.82 182.785 342.586 183.381 342.371 184.006C341.922 185.217 341.297 185.822 340.496 185.822C340.125 185.822 339.822 185.705 339.588 185.471C339.354 185.236 339.236 184.992 339.236 184.738C339.236 184.309 339.422 183.83 339.793 183.303C340.379 182.482 340.955 181.408 341.521 180.08C339.842 179.924 339.002 179.436 339.002 178.615C339.002 177.795 339.48 177.385 340.438 177.385C341.023 177.385 341.707 177.482 342.488 177.678L357.107 142.17L377.146 185.5H361.883L359.451 180.285H351.248ZM344.861 177.912C346.736 178.068 348.416 178.146 349.9 178.146H358.484L351.16 162.355L344.861 177.912ZM383.65 183.391C382.967 183 382.371 182.59 381.863 182.16C381.375 181.73 381.131 181.271 381.131 180.783C381.131 179.846 381.531 179.377 382.332 179.377C382.859 179.377 383.445 179.67 384.09 180.256C384.734 180.842 385.457 181.359 386.258 181.809C387.059 182.238 387.928 182.609 388.865 182.922C390.799 183.566 392.586 183.889 394.227 183.889C395.867 183.889 397.127 183.781 398.006 183.566C398.904 183.352 399.656 183.059 400.262 182.688C401.551 181.887 402.195 180.861 402.195 179.611C402.195 178.459 401.639 177.297 400.525 176.125C399.588 175.129 398.26 173.938 396.541 172.551L391.531 168.625C386.512 164.758 383.553 161.223 382.654 158.02C382.342 156.906 382.186 155.666 382.186 154.299C382.186 152.932 382.488 151.584 383.094 150.256C383.719 148.928 384.637 147.766 385.848 146.77C388.445 144.602 391.98 143.518 396.453 143.518C398.738 143.518 400.789 143.859 402.605 144.543C404.422 145.207 405.662 145.803 406.326 146.33C406.99 146.857 407.322 147.336 407.322 147.766C407.322 148.664 406.951 149.113 406.209 149.113C405.779 149.113 405.32 148.898 404.832 148.469C404.344 148.039 403.797 147.668 403.191 147.355C402.605 147.023 401.932 146.73 401.17 146.477C399.529 145.93 397.918 145.656 396.336 145.656C393.426 145.656 391.971 146.613 391.971 148.527C391.971 149.328 392.234 150.07 392.762 150.754C393.699 151.945 395.525 153.654 398.24 155.881C400.975 158.088 403.162 160.021 404.803 161.682C406.463 163.342 407.723 164.836 408.582 166.164C409.949 168.254 410.633 170.432 410.633 172.697C410.633 174.943 410.232 176.857 409.432 178.439C408.65 180.002 407.547 181.35 406.121 182.482C403.113 184.865 399.383 186.057 394.93 186.057C390.477 186.057 386.717 185.168 383.65 183.391ZM429.471 184.299C428.963 185.314 428.289 185.822 427.449 185.822C426.609 185.822 426.189 185.393 426.189 184.533C426.189 184.006 426.443 183.43 426.951 182.805C427.967 181.594 428.934 180.197 429.852 178.615L431.346 175.949L413.943 144.045H431.023L439.402 161.711L446.902 148.381C447.449 147.365 447.918 146.34 448.309 145.305C448.699 144.25 449.217 143.723 449.861 143.723C450.662 143.723 451.062 144.123 451.062 144.924C451.062 145.393 450.887 145.93 450.535 146.535L430.496 182.277C430.281 182.668 430.105 182.99 429.969 183.244L429.471 184.299Z" fill="black"/>
<rect x="76.5" y="101" width="408" height="127" stroke="#BDBDBD"/>
<rect x="495.5" y="90" width="21" height="21" transform="rotate(90 495.5 90)" fill="white" stroke="#BDBDBD" stroke-linecap="round"/>
<line x1="495.5" y1="89.5" x2="495.5" y2="111.5" stroke="white"/>
<line x1="474.5" y1="89.5" x2="474.5" y2="100.5" stroke="white"/>
<line x1="495" y1="111" x2="485" y2="111" stroke="white"/>
<line x1="495" y1="90" x2="474" y2="90" stroke="white"/>
<rect x="65.5" y="90" width="21" height="21" fill="white" stroke="#BDBDBD" stroke-linecap="round"/>
<line x1="65" y1="90" x2="87" y2="90" stroke="white"/>
<line x1="65" y1="111" x2="76" y2="111" stroke="white"/>
<line x1="86.5" y1="90.5" x2="86.5" y2="100.5" stroke="white"/>
<line x1="65.5" y1="90.5" x2="65.5" y2="111.5" stroke="white"/>
<rect x="495.5" y="239" width="21" height="21" transform="rotate(-180 495.5 239)" fill="white" stroke="#BDBDBD" stroke-linecap="round"/>
<line x1="496" y1="239" x2="474" y2="239" stroke="white"/>
<line x1="496" y1="218" x2="485" y2="218" stroke="white"/>
<line x1="474.5" y1="238.5" x2="474.5" y2="228.5" stroke="white"/>
<line x1="495.5" y1="238.5" x2="495.5" y2="217.5" stroke="white"/>
<rect x="65.5" y="239" width="21" height="21" transform="rotate(-90 65.5 239)" fill="white" stroke="#BDBDBD" stroke-linecap="round"/>
<line x1="65.5" y1="239.5" x2="65.5" y2="217.5" stroke="white"/>
<line x1="86.5" y1="239.5" x2="86.5" y2="228.5" stroke="white"/>
<line x1="66" y1="218" x2="76" y2="218" stroke="white"/>
<line x1="66" y1="239" x2="87" y2="239" stroke="white"/>
<rect x="73.5" y="98" width="414" height="133" stroke="black"/>
<rect x="62.5" y="87" width="21" height="21" fill="white" stroke="black" stroke-linecap="round"/>
<line x1="62" y1="87" x2="84" y2="87" stroke="white"/>
<line x1="62" y1="108" x2="73" y2="108" stroke="white"/>
<line x1="83.5" y1="87.5" x2="83.5" y2="97.5" stroke="white"/>
<line x1="62.5" y1="87.5" x2="62.5" y2="108.5" stroke="white"/>
<rect x="498.5" y="87" width="21" height="21" transform="rotate(90 498.5 87)" fill="white" stroke="black" stroke-linecap="round"/>
<line x1="498.5" y1="86.5" x2="498.5" y2="108.5" stroke="white"/>
<line x1="477.5" y1="86.5" x2="477.5" y2="97.5" stroke="white"/>
<line x1="498" y1="108" x2="488" y2="108" stroke="white"/>
<line x1="498" y1="87" x2="477" y2="87" stroke="white"/>
<rect x="498.5" y="242" width="21" height="21" transform="rotate(-180 498.5 242)" fill="white" stroke="black" stroke-linecap="round"/>
<line x1="499" y1="242" x2="477" y2="242" stroke="white"/>
<line x1="499" y1="221" x2="488" y2="221" stroke="white"/>
<line x1="477.5" y1="241.5" x2="477.5" y2="231.5" stroke="white"/>
<line x1="498.5" y1="241.5" x2="498.5" y2="220.5" stroke="white"/>
<rect x="62.5" y="242" width="21" height="21" transform="rotate(-90 62.5 242)" fill="white" stroke="black" stroke-linecap="round"/>
<line x1="62.5" y1="242.5" x2="62.5" y2="220.5" stroke="white"/>
<line x1="83.5" y1="242.5" x2="83.5" y2="231.5" stroke="white"/>
<line x1="63" y1="221" x2="73" y2="221" stroke="white"/>
<line x1="63" y1="242" x2="84" y2="242" stroke="white"/>
<rect x="79.5" y="104" width="402" height="121" stroke="black"/>
<rect x="73.5" y="98" width="6" height="6" stroke="black"/>
<rect x="73.5" y="225" width="6" height="6" stroke="black"/>
<rect x="481.5" y="225" width="6" height="6" stroke="black"/>
<rect x="481.5" y="98" width="6" height="6" stroke="black"/>
<line x1="156" y1="90" x2="406" y2="90" stroke="black"/>
<path d="M202 65.5H229.5L259 90H248.5L202 65.5Z" fill="black"/>
<path d="M231 61H238.5L263 90H260.5L231 61Z" fill="black"/>
<path d="M239 57H322L295 90.5H266L239 57Z" fill="black"/>
<path d="M360 65H332.5L303 89.5H313.5L360 65Z" fill="black"/>
<path d="M331 60.5H323.5L299 89.5H301.5L331 60.5Z" fill="black"/>
<line y1="-0.5" x2="250" y2="-0.5" transform="matrix(1 0 0 -1 156 238.5)" stroke="black"/>
<path d="M202 263.5H229.5L259 239H248.5L202 263.5Z" fill="black"/>
<path d="M231 268H238.5L263 239H260.5L231 268Z" fill="black"/>
<path d="M239 272H322L295 238.5H266L239 272Z" fill="black"/>
<path d="M360 264H332.5L303 239.5H313.5L360 264Z" fill="black"/>
<path d="M331 268.5H323.5L299 239.5H301.5L331 268.5Z" fill="black"/>
</g>
<defs>
<clipPath id="clip0">
<rect width="330" height="561" fill="white" transform="translate(0 330) rotate(-90)"/>
</clipPath>
</defs>
</svg>
